<svg width="12" height="11" viewBox="0 0 12 11" fill="none" xmlns="http://www.w3.org/2000/svg">
<path d="M6.55556 6.42916L3.22222 6.42871M6.55556 6.42916L5.16667 5.02246M6.55556 6.42916L5.16667 7.83496M11 5.30371V4.85371C11 4.22365 11 3.90862 10.8789 3.66797C10.7724 3.45629 10.6024 3.28418 10.3933 3.17633C10.1557 3.05371 9.8445 3.05371 9.22222 3.05371H1M11 5.30371V7.55371M11 5.30371H9.88889C9.27522 5.30371 8.77778 5.80737 8.77778 6.42871C8.77778 7.05005 9.27522 7.55371 9.88889 7.55371H11M1 3.05371V8.00371C1 8.63377 1 8.94882 1.12111 9.18946C1.22763 9.40113 1.39761 9.57325 1.60668 9.68109C1.84436 9.80371 2.1555 9.80371 2.77778 9.80371H9.22222C9.8445 9.80371 10.1557 9.80371 10.3933 9.68109C10.6024 9.57325 10.7724 9.40113 10.8789 9.18946C11 8.94882 11 8.63377 11 8.00371V7.55371M1 3.05371V2.60371C1 1.97365 1 1.65862 1.12111 1.41797C1.22763 1.20629 1.39761 1.03418 1.60668 0.92633C1.84436 0.803711 2.15549 0.803711 2.77778 0.803711H7.55556C8.17783 0.803711 8.489 0.803711 8.72667 0.92633C8.93572 1.03418 9.10572 1.20629 9.21222 1.41797C9.33333 1.65862 9.33333 1.97365 9.33333 2.60371V3.05371" stroke="white" stroke-linecap="round" stroke-linejoin="round"/>
</svg>
