<svg width="25" height="24" viewBox="0 0 25 24" fill="none" xmlns="http://www.w3.org/2000/svg">
<g clip-path="url(#clip0_5219_5947)">
<path fill-rule="evenodd" clip-rule="evenodd" d="M24.7998 12C24.7998 18.6263 19.4261 24 12.7998 24C6.17351 24 0.799805 18.6263 0.799805 12C0.799805 5.3737 6.17351 0 12.7998 0C19.4261 0 24.7998 5.3737 24.7998 12Z" fill="#29296E"/>
<path fill-rule="evenodd" clip-rule="evenodd" d="M18.4223 8.79645L18.1163 7.8594C18.0589 7.66816 17.9059 7.52474 17.7147 7.4578L16.7776 7.17095C16.6438 7.1327 16.6438 6.95103 16.7776 6.90322L17.7147 6.59725C17.9059 6.53988 18.0494 6.38689 18.1163 6.19565L18.4031 5.2586C18.4414 5.12474 18.6231 5.12474 18.6709 5.2586L18.9768 6.19565C19.0342 6.38689 19.1872 6.53031 19.3784 6.59725L20.3155 6.8841C20.4494 6.92235 20.4494 7.10402 20.3155 7.15183L19.3784 7.4578C19.1872 7.51518 19.0438 7.66816 18.9768 7.8594L18.69 8.79645C18.6422 8.92075 18.4605 8.92075 18.4223 8.79645Z" fill="#FAFAFA"/>
<path fill-rule="evenodd" clip-rule="evenodd" d="M1.85156 11.8086C2.13842 11.2445 2.70256 10.8142 3.29539 10.5465C3.88822 10.2787 4.53842 10.1162 5.17905 10.0684C6.46989 9.95364 7.73204 10.164 8.87945 10.5465C9.47228 10.7281 9.99818 10.9672 10.5432 11.2158C10.8109 11.3401 11.0595 11.4931 11.3177 11.6365L12.0253 12.0477C12.8093 12.5257 13.5647 12.956 14.2723 13.2907C14.9894 13.6158 15.63 13.8453 16.2324 13.96C16.8348 14.0748 17.4563 14.0748 18.2117 13.9026C18.9671 13.7305 19.8085 13.3576 20.6978 12.8891C21.587 12.411 22.5049 11.8277 23.5472 11.2636C23.442 12.4493 23.1073 13.568 22.591 14.6485C22.0555 15.7098 21.3097 16.752 20.2293 17.5935C19.1679 18.4445 17.7049 19.0277 16.2229 19.1234C14.7312 19.2285 13.3257 18.8939 12.1209 18.3967C10.9161 17.8899 9.86431 17.2301 8.94638 16.5034C8.68822 16.3026 8.55435 16.1879 8.36312 16.0254L7.83722 15.5568C7.48344 15.2795 7.13921 14.9449 6.78543 14.6676C6.08742 14.0556 5.38941 13.4628 4.62447 12.956C4.242 12.6979 3.84997 12.4493 3.40057 12.2389C3.18065 12.1337 2.9416 12.0381 2.68344 11.9616C2.42527 11.8756 2.1671 11.8277 1.85156 11.8086Z" fill="#FF4F0A"/>
<path fill-rule="evenodd" clip-rule="evenodd" d="M1.85156 11.8277C1.99499 10.6134 2.55913 9.47554 3.4675 8.5098C4.3663 7.55363 5.78144 6.80781 7.34001 6.71219C8.11451 6.66438 8.89857 6.75044 9.61571 6.94168C10.3328 7.14247 11.0022 7.42933 11.6141 7.77355C11.9201 7.94566 12.1974 8.13689 12.4842 8.31857L13.2396 8.89227L14.4157 9.81976C15.1806 10.4222 15.9073 10.9863 16.5767 11.4548C17.2555 11.9233 17.8293 12.258 18.3838 12.4588C18.9289 12.6787 19.6173 12.7265 20.5352 12.4971C20.9846 12.3919 21.4627 12.2006 21.9695 11.9903C22.4667 11.7799 22.9926 11.5218 23.5663 11.2731C23.4994 11.8851 23.3751 12.4875 23.136 13.0612C22.9065 13.6349 22.6101 14.199 22.199 14.7249C21.9886 14.9831 21.7591 15.2413 21.4914 15.4708C21.2237 15.7002 20.9273 15.9202 20.6022 16.1114C19.952 16.4843 19.1775 16.7616 18.3838 16.8668C17.5902 16.9624 16.7966 16.9146 16.0699 16.7616C15.3432 16.6086 14.6834 16.3696 14.0715 16.0923C12.8571 15.5281 11.8436 14.8206 10.9448 14.0652C10.4954 13.6923 10.0747 13.3002 9.67308 12.8986L9.20455 12.4206C9.06112 12.2867 8.9177 12.1433 8.77427 12.019C8.20057 11.5122 7.66511 11.1202 7.08184 10.8811C6.49857 10.623 5.75276 10.5273 4.83483 10.6994C3.9169 10.8811 2.92248 11.2731 1.85156 11.8277Z" fill="#FAFAFA"/>
<path fill-rule="evenodd" clip-rule="evenodd" d="M6.72829 18.0717C6.72829 18.4446 6.43188 18.741 6.05897 18.741C5.68606 18.741 5.38965 18.4446 5.38965 18.0717C5.38965 17.6988 5.68606 17.4023 6.05897 17.4023C6.43188 17.4023 6.72829 17.6988 6.72829 18.0717Z" fill="#FAFAFA"/>
<path fill-rule="evenodd" clip-rule="evenodd" d="M6.72829 18.0717C6.72829 18.4446 6.43188 18.741 6.05897 18.741C5.68606 18.741 5.38965 18.4446 5.38965 18.0717C5.38965 17.6988 5.68606 17.4023 6.05897 17.4023C6.43188 17.4023 6.72829 17.6988 6.72829 18.0717Z" fill="#FAFAFA"/>
</g>
<defs>
<clipPath id="clip0_5219_5947">
<rect width="24" height="24" fill="white" transform="translate(0.799805)"/>
</clipPath>
</defs>
</svg>
