<svg width="35" height="61" viewBox="0 0 35 61" fill="none" xmlns="http://www.w3.org/2000/svg">
<g id="Group 438">
<g id="Layer 2">
<g id="Layer 1">
<path id="Vector" d="M7.73583 60.3539C8.98074 54.862 10.2266 49.3701 11.4735 43.8782C11.5801 43.4016 11.7014 42.925 11.8198 42.4513C12.3022 40.5184 13.1811 38.5031 10.7189 37.0938H17.7267C17.1023 39.5799 16.5252 41.8717 15.9511 44.1548L16.1878 44.2666L24.5185 34.5577H0L25.2613 0L25.6164 0.176525C24.915 3.2716 24.2048 6.3549 23.5182 9.46174C22.4795 14.1691 21.5206 18.8764 20.3842 23.5337C20.0439 24.9371 20.0054 25.9933 21.4111 26.7112C21.6745 26.8465 21.9616 26.9348 22.2368 27.0466L21.8994 27.4585H14.7614C15.3118 25.0518 15.8238 22.8012 16.3358 20.5505L16.1079 20.4181L9.17409 29.8445H34.1306L34.3348 30.2446L8.1383 60.6069L7.73583 60.3539Z" fill="url(#paint0_linear_5475_2073)"/>
</g>
</g>
</g>
<defs>
<linearGradient id="paint0_linear_5475_2073" x1="21.178" y1="7.30275" x2="9.49357" y2="48.1981" gradientUnits="userSpaceOnUse">
<stop stop-color="#C398FF"/>
<stop offset="1" stop-color="#8700FF"/>
</linearGradient>
</defs>
</svg>
